<?xml version="1.0" encoding="UTF-8" standalone="no"?>
<svg
   xmlns:dc="http://purl.org/dc/elements/1.1/"
   xmlns:cc="http://creativecommons.org/ns#"
   xmlns:rdf="http://www.w3.org/1999/02/22-rdf-syntax-ns#"
   xmlns:svg="http://www.w3.org/2000/svg"
   xmlns="http://www.w3.org/2000/svg"
   xmlns:sodipodi="http://sodipodi.sourceforge.net/DTD/sodipodi-0.dtd"
   xmlns:inkscape="http://www.inkscape.org/namespaces/inkscape"
   width="2500"
   height="2500"
   viewBox="0 0 192.756 192.756"
   version="1.1"
   id="svg10"
   sodipodi:docname="biohazard.svg"
   inkscape:version="0.92.2 (5c3e80d, 2017-08-06)">
  <metadata
     id="metadata16">
    <rdf:RDF>
      <cc:Work
         rdf:about="">
        <dc:format>image/svg+xml</dc:format>
        <dc:type
           rdf:resource="http://purl.org/dc/dcmitype/StillImage" />
        <dc:title></dc:title>
      </cc:Work>
    </rdf:RDF>
  </metadata>
  <defs
     id="defs14" />
  <sodipodi:namedview
     pagecolor="#ffffff"
     bordercolor="#666666"
     borderopacity="1"
     objecttolerance="10"
     gridtolerance="10"
     guidetolerance="10"
     inkscape:pageopacity="0"
     inkscape:pageshadow="2"
     inkscape:window-width="1920"
     inkscape:window-height="1017"
     id="namedview12"
     showgrid="false"
     inkscape:zoom="0.13350176"
     inkscape:cx="582.28742"
     inkscape:cy="2168.6382"
     inkscape:window-x="-8"
     inkscape:window-y="-8"
     inkscape:window-maximized="1"
     inkscape:current-layer="svg10" />
  <g
     id="g8"
     transform="matrix(0.63674617,0,0,0.66507787,35.372772,31.961337)"
     style="clip-rule:evenodd;fill-rule:evenodd">
    <path
       d="M 0,0 H 192.756 V 192.756 H 0 Z"
       id="path2"
       inkscape:connector-curvature="0"
       style="fill:#ffffff" />
    <path
       d="m 97.322,166.416 c 13.316,20.594 31.619,29.506 55.986,19.209 -29.529,11.705 -52.512,-15.936 -51.58,-38.869 0,-17.824 16.891,-35.621 37.51,-35.621 25.777,0 45.941,22.959 37.029,51.984 14.551,-33.734 -13.568,-65.125 -40.781,-63.213 14.072,-25.3 0.479,-54.326 -23.412,-63.715 42.191,24.368 20.139,73.055 -15.709,73.534 C 60.542,109.246 38.49,60.559 80.707,36.191 56.791,45.581 43.197,74.607 57.27,99.906 30.056,97.994 1.937,129.385 16.488,163.119 7.576,134.094 27.741,111.135 53.519,111.135 c 20.643,0 37.509,17.797 37.509,35.621 0.957,22.934 -22.052,50.574 -51.582,38.869 24.369,10.297 44.559,1.385 57.876,-19.209 z M 85.037,142.098 c 0,0 0.227,3.777 0.202,3.777 -8.131,-0.982 -15.507,-9.113 -16.187,-18.025 -0.176,-2.719 0.327,-5.514 1.385,-7.754 l 3.323,2.367 c -0.781,1.736 -1.158,3.852 -0.982,5.916 0.477,6.746 6.117,12.965 12.259,13.719 z m 23.084,0 c 6.219,-0.754 11.857,-6.973 12.336,-13.719 0.15,-2.064 -0.201,-4.18 -0.982,-5.916 l 3.324,-2.367 c 1.057,2.24 1.561,5.035 1.359,7.754 -0.654,8.912 -8.031,17.043 -16.238,18.025 -0.051,0 0.201,-3.777 0.201,-3.777 z M 108.6,102.826 C 104.924,97.791 96.718,96.105 90.676,99 c -1.863,0.906 -3.499,2.266 -4.606,3.826 l -3.751,-1.711 c 1.46,-2.039 3.625,-3.826 6.067,-5.01 8.03,-3.877 18.755,-1.536 23.587,5.061 0,0.025 -3.373,1.66 -3.373,1.66 z m -10.145,6.143 c 7.578,1.184 12.738,8.309 11.529,15.885 -1.184,7.578 -8.281,12.738 -15.859,11.531 -7.552,-1.184 -12.713,-8.283 -11.53,-15.861 1.183,-7.577 8.308,-12.739 15.86,-11.555 z"
       id="path4"
       inkscape:connector-curvature="0"
       style="fill:#cc2229" />
  </g>
  <flowRoot
     xml:space="preserve"
     id="flowRoot4512"
     style="fill:black;fill-opacity:1;stroke:none;font-family:sans-serif;font-style:normal;font-weight:normal;font-size:40px;line-height:1.25;letter-spacing:0px;word-spacing:0px"><flowRegion
       id="flowRegion4514"><rect
         id="rect4516"
         width="1694.9153"
         height="211.8644"
         x="370.76273"
         y="328.38983" /></flowRegion><flowPara
       id="flowPara4518"></flowPara></flowRoot>  <flowRoot
     xml:space="preserve"
     id="flowRoot4520"
     style="font-style:normal;font-weight:normal;font-size:40px;line-height:1.25;font-family:sans-serif;letter-spacing:0px;word-spacing:0px;fill:#000000;fill-opacity:1;stroke:none"
     transform="matrix(0.0771024,0,0,0.0771024,39.994538,9.0962306)"><flowRegion
       id="flowRegion4522"><rect
         id="rect4524"
         width="1430.0847"
         height="349.57626"
         x="476.69492"
         y="211.86441" /></flowRegion><flowPara
       id="flowPara4526"
       style="font-size:192px;-inkscape-font-specification:'Snap ITC';font-family:'Snap ITC';font-weight:normal;font-style:normal;font-stretch:normal;font-variant:normal">LOGO</flowPara></flowRoot></svg>
